# xmcd
# Copyright (C) 1995-1998 Ti Kan
#
# Track frame offsets:
#       150
#       21107
#       44369
#       64466
#       80539
#       97996
#       117277
#       136030
#       154242
#       171397
#       194290
#       209875
#       227344
#
# Disc length: 3226 seconds
#
# Revision: 0
# Processed by: cddbd v1.4PL0 Copyright (c) Steve Scherf et al.
# Submitted via: CD-Transfer v1.0
#
DISCID=b20c980d
DTITLE=Preen - Above Clouds And Visions
DYEAR=2002
DGENRE=
TTITLE0=Before I Could Believe
TTITLE1=Those Days
TTITLE2=Rumored Place
TTITLE3=Criminal
TTITLE4=Welcome Home
TTITLE5=This Time
TTITLE6=Isolation
TTITLE7=The Table's Laid
TTITLE8=Come And Gone
TTITLE9=Emotions
TTITLE10=3 In 1
TTITLE11=Remind Me
TTITLE12=Fleeting
EXTD=
EXTT0=
EXTT1=
EXTT2=
EXTT3=
EXTT4=
EXTT5=
EXTT6=
EXTT7=
EXTT8=
EXTT9=
EXTT10=
EXTT11=
EXTT12=
PLAYORDER=
